<svg width="16" height="16" viewBox="0 0 16 16" fill="none" xmlns="http://www.w3.org/2000/svg">
<g id="Huge-icon/multimedia and audio/outline/camera 2">
<rect width="16" height="16" fill="#FF0A54"/>
<path id="Vector" d="M4.66658 4V4.6C4.8672 4.6 5.05454 4.49974 5.16582 4.33282L4.66658 4ZM5.6041 2.59373L5.10487 2.26091V2.26091L5.6041 2.59373ZM10.3957 2.59373L10.895 2.26091L10.3957 2.59373ZM11.3333 4L10.834 4.33282C10.9453 4.49974 11.1326 4.6 11.3333 4.6V4ZM9.39992 9C9.39992 9.7732 8.77312 10.4 7.99992 10.4V11.6C9.43586 11.6 10.5999 10.4359 10.5999 9H9.39992ZM7.99992 10.4C7.22672 10.4 6.59992 9.7732 6.59992 9H5.39992C5.39992 10.4359 6.56398 11.6 7.99992 11.6V10.4ZM6.59992 9C6.59992 8.2268 7.22672 7.6 7.99992 7.6V6.4C6.56398 6.4 5.39992 7.56406 5.39992 9H6.59992ZM7.99992 7.6C8.77312 7.6 9.39992 8.2268 9.39992 9H10.5999C10.5999 7.56406 9.43586 6.4 7.99992 6.4V7.6ZM5.16582 4.33282L6.10333 2.92655L5.10487 2.26091L4.16735 3.66718L5.16582 4.33282ZM6.7135 2.6H9.28634V1.4H6.7135V2.6ZM9.89651 2.92655L10.834 4.33282L11.8325 3.66718L10.895 2.26091L9.89651 2.92655ZM9.28634 2.6C9.53153 2.6 9.7605 2.72254 9.89651 2.92655L10.895 2.26091C10.5364 1.72306 9.93276 1.4 9.28634 1.4V2.6ZM6.10333 2.92655C6.23934 2.72254 6.4683 2.6 6.7135 2.6V1.4C6.06708 1.4 5.46343 1.72306 5.10487 2.26091L6.10333 2.92655ZM14.0666 6.66667V11.3333H15.2666V6.66667H14.0666ZM11.9999 13.4H3.99992V14.6H11.9999V13.4ZM1.93325 11.3333V6.66667H0.733252V11.3333H1.93325ZM3.99992 13.4C2.85853 13.4 1.93325 12.4747 1.93325 11.3333H0.733252C0.733252 13.1375 2.19579 14.6 3.99992 14.6V13.4ZM14.0666 11.3333C14.0666 12.4747 13.1413 13.4 11.9999 13.4V14.6C13.804 14.6 15.2666 13.1375 15.2666 11.3333H14.0666ZM11.9999 4.6C13.1413 4.6 14.0666 5.52528 14.0666 6.66667H15.2666C15.2666 4.86254 13.804 3.4 11.9999 3.4V4.6ZM3.99992 3.4C2.19579 3.4 0.733252 4.86254 0.733252 6.66667H1.93325C1.93325 5.52528 2.85853 4.6 3.99992 4.6V3.4ZM3.99992 4.6H4.66658V3.4H3.99992V4.6ZM11.9999 3.4H11.3333V4.6H11.9999V3.4Z" fill="white"/>
<circle id="Ellipse 352" cx="7.99992" cy="3.99992" r="0.666667" fill="white"/>
</g>
</svg>
