<svg width="14" height="14" viewBox="0 0 14 14" fill="none" xmlns="http://www.w3.org/2000/svg">
<g id="Filter">
<g id="Iconly/Bold/Filter">
<g id="Filter_2">
<path id="Vector" d="M10.8272 8.17808C11.9355 8.17808 12.8332 9.06065 12.8332 10.1495C12.8332 11.2378 11.9355 12.1204 10.8272 12.1204C9.71949 12.1204 8.82116 11.2378 8.82116 10.1495C8.82116 9.06065 9.71949 8.17808 10.8272 8.17808ZM5.88176 9.30881C6.36722 9.30881 6.76129 9.69597 6.76129 10.1729C6.76129 10.6492 6.36722 11.037 5.88176 11.037H2.04604C1.56058 11.037 1.1665 10.6492 1.1665 10.1729C1.1665 9.69597 1.56058 9.30881 2.04604 9.30881H5.88176ZM3.17251 1.75C4.28084 1.75 5.17852 2.63257 5.17852 3.72083C5.17852 4.80972 4.28084 5.69229 3.17251 5.69229C2.06483 5.69229 1.1665 4.80972 1.1665 3.72083C1.1665 2.63257 2.06483 1.75 3.17251 1.75ZM11.9543 2.85736C12.4391 2.85736 12.8332 3.24452 12.8332 3.72083C12.8332 4.19777 12.4391 4.58493 11.9543 4.58493H8.11857C7.63311 4.58493 7.23904 4.19777 7.23904 3.72083C7.23904 3.24452 7.63311 2.85736 8.11857 2.85736H11.9543Z" fill="#7A869A"/>
</g>
</g>
</g>
</svg>
