<svg width="25" height="24" viewBox="0 0 25 24" fill="none" xmlns="http://www.w3.org/2000/svg">
<g id="&#240;&#159;&#148;&#189; Icon">
<g id="Group 14">
<path id="google" fill-rule="evenodd" clip-rule="evenodd" d="M21.5 12.2089C21.5 11.5572 21.4415 10.9305 21.3329 10.3289H12.6763V13.8843H17.6229C17.4098 15.0332 16.7623 16.0066 15.7888 16.6584V18.9646H18.7593C20.4973 17.3645 21.5 15.0081 21.5 12.2089Z" fill="#4285F4"/>
<path id="google_2" fill-rule="evenodd" clip-rule="evenodd" d="M12.6759 21.1914C15.1576 21.1914 17.2382 20.3683 18.7589 18.9646L15.7884 16.6583C14.9654 17.2098 13.9126 17.5357 12.6759 17.5357C10.282 17.5357 8.25567 15.9189 7.53289 13.7463H4.46213V16.1277C5.97453 19.1317 9.0829 21.1914 12.6759 21.1914Z" fill="#34A853"/>
<path id="google_3" fill-rule="evenodd" clip-rule="evenodd" d="M7.53326 13.7463C7.34943 13.1949 7.24498 12.6058 7.24498 12C7.24498 11.3942 7.34943 10.8051 7.53326 10.2536V7.87219H4.46249C3.83999 9.11303 3.48486 10.5168 3.48486 12C3.48486 13.4831 3.83999 14.8869 4.46249 16.1277L7.53326 13.7463Z" fill="#FBBC05"/>
<path id="google_4" fill-rule="evenodd" clip-rule="evenodd" d="M12.6759 6.46427C14.0254 6.46427 15.237 6.92802 16.1895 7.8388L18.8258 5.20254C17.234 3.71938 15.1534 2.80859 12.6759 2.80859C9.0829 2.80859 5.97453 4.8683 4.46213 7.87222L7.53289 10.2536C8.25567 8.08112 10.282 6.46427 12.6759 6.46427Z" fill="#EA4335"/>
</g>
</g>
</svg>
