<svg width="65" height="64" viewBox="0 0 65 64" fill="none" xmlns="http://www.w3.org/2000/svg">
<path d="M22.5 6V14" stroke="#FF0A54" stroke-width="2" stroke-linecap="round" stroke-linejoin="round"/>
<path d="M30.5 6V14" stroke="#FF0A54" stroke-width="2" stroke-linecap="round" stroke-linejoin="round"/>
<path d="M38.5 6V14" stroke="#FF0A54" stroke-width="2" stroke-linecap="round" stroke-linejoin="round"/>
<path d="M8.5 54H52.5" stroke="#FF0A54" stroke-width="2" stroke-linecap="round" stroke-linejoin="round"/>
<path d="M21.325 54C17.4972 52.2436 14.2539 49.4254 11.9805 45.8801C9.70715 42.3349 8.49914 38.2116 8.5 34V22H52.5V34C52.5009 38.2116 51.2929 42.3349 49.0195 45.8801C46.7461 49.4254 43.5028 52.2436 39.675 54" stroke="#FF0A54" stroke-width="2" stroke-linecap="round" stroke-linejoin="round"/>
<path d="M52.5004 22C54.6221 22 56.657 22.8429 58.1572 24.3431C59.6575 25.8434 60.5004 27.8783 60.5004 30V32C60.5004 34.1217 59.6575 36.1566 58.1572 37.6569C56.657 39.1571 54.6221 40 52.5004 40H51.6504" stroke="#FF0A54" stroke-width="2" stroke-linecap="round" stroke-linejoin="round"/>
</svg>
