<svg width="65" height="64" viewBox="0 0 65 64" fill="none" xmlns="http://www.w3.org/2000/svg">
<g id="Person">
<path id="Vector" d="M32.4746 18C36.3406 18 39.4746 14.866 39.4746 11C39.4746 7.13401 36.3406 4 32.4746 4C28.6086 4 25.4746 7.13401 25.4746 11C25.4746 14.866 28.6086 18 32.4746 18Z" stroke="#FF0A54" stroke-width="2" stroke-linecap="round" stroke-linejoin="round"/>
<path id="Vector_2" d="M38.975 33.675L47.675 40.425C48.2502 40.9037 48.9835 41.1503 49.731 41.1161C50.4786 41.082 51.1864 40.7697 51.7156 40.2406C52.2447 39.7114 52.557 39.0036 52.5911 38.256C52.6253 37.5085 52.3788 36.7752 51.9 36.2L42 23.475C41.5387 23.009 40.9897 22.6387 40.3848 22.3856C39.7798 22.1324 39.1308 22.0014 38.475 22H26.475C25.144 22.0071 23.8691 22.5368 22.925 23.475L13.025 36.2C12.5095 36.7722 12.2339 37.5207 12.255 38.2905C12.2762 39.0604 12.5927 39.7926 13.1389 40.3356C13.685 40.8785 14.4191 41.1906 15.189 41.2073C15.959 41.2239 16.7059 40.9438 17.275 40.425L25.975 33.675L19.025 55.575C18.8576 55.9329 18.7623 56.3202 18.7445 56.7149C18.7268 57.1096 18.7869 57.5039 18.9216 57.8753C19.0562 58.2467 19.2627 58.588 19.5292 58.8797C19.7958 59.1713 20.1172 59.4076 20.475 59.575C20.8329 59.7424 21.2202 59.8377 21.6149 59.8555C22.0096 59.8732 22.4039 59.8131 22.7753 59.6784C23.1467 59.5438 23.488 59.3373 23.7797 59.0708C24.0713 58.8042 24.3076 58.4829 24.475 58.125L32.475 45.525L40.475 58.125C40.6313 58.4985 40.8615 58.8365 41.1519 59.1186C41.4422 59.4007 41.7867 59.6212 42.1645 59.7666C42.5423 59.9121 42.9457 59.9796 43.3502 59.9651C43.7548 59.9505 44.1523 59.8543 44.5187 59.682C44.8851 59.5098 45.2128 59.2652 45.4822 58.963C45.7515 58.6607 45.9569 58.3071 46.086 57.9234C46.2151 57.5396 46.2651 57.1337 46.2331 56.7302C46.2012 56.3266 46.0879 55.9336 45.9 55.575L38.975 33.675Z" stroke="#FF0A54" stroke-width="2" stroke-linecap="round" stroke-linejoin="round"/>
</g>
</svg>
