<svg width="63" height="64" viewBox="0 0 63 64" fill="none" xmlns="http://www.w3.org/2000/svg">
<path d="M7.875 16V36" stroke="#FF0A54" stroke-width="2" stroke-linecap="round" stroke-linejoin="round"/>
<path d="M13.3379 53.9999C15.3078 50.9305 18.0003 48.4089 21.1716 46.6635C24.3429 44.918 27.8928 44.0039 31.4996 44.0039C35.1064 44.0039 38.6563 44.918 41.8276 46.6635C44.9989 48.4089 47.6914 50.9305 49.6613 53.9999" stroke="#FF0A54" stroke-width="2" stroke-linecap="round" stroke-linejoin="round"/>
<path d="M55.125 16L31.5 24L7.875 16L31.5 8L55.125 16Z" stroke="#FF0A54" stroke-width="2" stroke-linecap="round" stroke-linejoin="round"/>
<path d="M41.6637 20.5508C43.4696 22.5542 44.6628 25.0482 45.0977 27.7285C45.5327 30.4089 45.1906 33.1599 44.1132 35.6462C43.0358 38.1325 41.2697 40.2467 39.0301 41.731C36.7904 43.2153 34.1741 44.0056 31.5 44.0056C28.8259 44.0056 26.2096 43.2153 23.97 41.731C21.7303 40.2467 19.9642 38.1325 18.8868 35.6462C17.8094 33.1599 17.4673 30.4089 17.9023 27.7285C18.3372 25.0482 19.5304 22.5542 21.3363 20.5508" stroke="#FF0A54" stroke-width="2" stroke-linecap="round" stroke-linejoin="round"/>
</svg>
