<svg width="23" height="23" viewBox="0 0 23 23" fill="none" xmlns="http://www.w3.org/2000/svg">
<g id="Iconly/Bulk/Wallet">
<g id="Wallet">
<path id="Fill 1" fill-rule="evenodd" clip-rule="evenodd" d="M21.08 8.02616H17.0218C15.1332 8.02948 13.6033 9.52118 13.5999 11.3625C13.5973 13.2081 15.129 14.7064 17.0218 14.7089H21.0834V15.0021C21.0834 18.2213 19.1318 20.125 15.8292 20.125H7.17182C3.86834 20.125 1.91675 18.2213 1.91675 15.0021V7.99045C1.91675 4.77118 3.86834 2.875 7.17182 2.875H15.8258C19.1284 2.875 21.08 4.77118 21.08 7.99045V8.02616ZM6.45874 8.01911H11.8637H11.8671H11.874C12.2786 8.01745 12.6057 7.69602 12.604 7.30067C12.6023 6.90615 12.2718 6.58721 11.8671 6.58887H6.45874C6.05667 6.59053 5.73041 6.90864 5.72871 7.3015C5.727 7.69602 6.05411 8.01745 6.45874 8.01911Z" fill="#BBC1CE"/>
<path id="Fill 4" opacity="0.69" d="M15.3693 11.7841C15.5698 12.6957 16.369 13.337 17.2814 13.3203H20.3959C20.7755 13.3203 21.0835 13.0059 21.0835 12.6173V10.1912C21.0827 9.80339 20.7755 9.48814 20.3959 9.4873H17.2081C16.1702 9.49064 15.3319 10.3522 15.3335 11.4138C15.3335 11.5381 15.3457 11.6623 15.3693 11.7841Z" fill="#BBC1CE"/>
<path id="Oval" d="M17.2503 12.362C17.7796 12.362 18.2087 11.9329 18.2087 11.4036C18.2087 10.8744 17.7796 10.4453 17.2503 10.4453C16.7211 10.4453 16.292 10.8744 16.292 11.4036C16.292 11.9329 16.7211 12.362 17.2503 12.362Z" fill="#BBC1CE"/>
</g>
</g>
</svg>
