<svg width="22" height="20" viewBox="0 0 22 20" fill="none" xmlns="http://www.w3.org/2000/svg">
<g id="Group 17348">
<path id="Path 3392" d="M15.8663 0.106445C14.8402 0.106624 13.8326 0.379902 12.9471 0.898216C12.0615 1.41653 11.3299 2.1612 10.8273 3.05577C10.3246 2.16099 9.59273 1.41618 8.70691 0.897854C7.82109 0.379527 6.81324 0.10637 5.78692 0.106445C4.21506 0.191338 2.73644 0.878953 1.65864 2.02625C0.580845 3.17355 -0.0131502 4.6922 0.000220938 6.26629C0.000220938 14.2933 10.8273 19.8934 10.8273 19.8934C10.8273 19.8934 21.6544 14.2962 21.6544 6.26629C21.6678 4.69197 21.0736 3.17311 19.9955 2.02578C18.9174 0.87844 17.4384 0.190981 15.8663 0.106445V0.106445Z" fill="#BBC1CE"/>
</g>
</svg>
