<svg width="23" height="24" viewBox="0 0 23 24" fill="none" xmlns="http://www.w3.org/2000/svg">
<g id="Iconly/Bulk/Location">
<g id="Location">
<path id="Path_34175" fill-rule="evenodd" clip-rule="evenodd" d="M8.17622 3.31473C10.27 2.09813 12.8437 2.11939 14.9179 3.37043C16.9716 4.64695 18.2199 6.92516 18.2083 9.37588C18.1605 11.8105 16.822 14.0991 15.1489 15.8682C14.1833 16.894 13.103 17.801 11.9302 18.5707C11.8094 18.6405 11.6771 18.6873 11.5398 18.7087C11.4077 18.703 11.279 18.664 11.1654 18.595C9.37491 17.4385 7.80411 15.9621 6.52857 14.237C5.46123 12.797 4.85484 11.0573 4.79175 9.25414C4.79036 6.79873 6.0824 4.53133 8.17622 3.31473ZM9.38619 10.2699C9.7384 11.1382 10.5697 11.7046 11.4921 11.7046C12.0963 11.709 12.6771 11.4669 13.1051 11.0325C13.5332 10.598 13.7728 10.0072 13.7706 9.3917C13.7739 8.45221 13.2208 7.60339 12.3696 7.24158C11.5184 6.87977 10.537 7.07634 9.88371 7.73951C9.23039 8.40267 9.03398 9.40162 9.38619 10.2699Z" fill="#BBC1CE"/>
</g>
</g>
</svg>
