<svg width="23" height="23" viewBox="0 0 23 23" fill="none" xmlns="http://www.w3.org/2000/svg">
<g id="Iconly/Bulk/Document">
<g id="Document">
<path id="Path" opacity="0.4" d="M15.5164 1.91699H7.48458C4.57125 1.91699 2.875 3.62283 2.875 6.54574V16.4453C2.875 19.4162 4.57125 21.0837 7.48458 21.0837H15.5164C18.4767 21.0837 20.125 19.4162 20.125 16.4453V6.54574C20.125 3.62283 18.4767 1.91699 15.5164 1.91699Z" fill="#BBC1CE"/>
<path id="Combined Shape" fill-rule="evenodd" clip-rule="evenodd" d="M7.74302 6.37305V6.38263C7.32998 6.38263 6.99552 6.71805 6.99552 7.13013C6.99552 7.54221 7.32998 7.87763 7.74302 7.87763H10.6075C11.0205 7.87763 11.3559 7.54221 11.3559 7.11959C11.3559 6.70846 11.0205 6.37305 10.6075 6.37305H7.74302ZM15.2564 12.2098H7.74304C7.33 12.2098 6.99554 11.8744 6.99554 11.4623C6.99554 11.0502 7.33 10.7139 7.74304 10.7139H15.2564C15.6685 10.7139 16.0039 11.0502 16.0039 11.4623C16.0039 11.8744 15.6685 12.2098 15.2564 12.2098ZM15.2565 16.5885H7.74317C7.45567 16.6268 7.17776 16.4831 7.02442 16.2435C6.87109 15.9943 6.87109 15.6781 7.02442 15.4385C7.17776 15.1893 7.45567 15.0552 7.74317 15.0839H15.2565C15.6389 15.1223 15.9273 15.4481 15.9273 15.841C15.9273 16.2234 15.6389 16.5502 15.2565 16.5885Z" fill="#BBC1CE"/>
</g>
</g>
</svg>
