<svg width="19" height="20" viewBox="0 0 19 20" fill="none" xmlns="http://www.w3.org/2000/svg">
<g id="Vector">
<path d="M4.33208 3.24484C1.91689 5.03818 0.709292 5.93485 0.235 7.25936C0.196953 7.36561 0.162731 7.47326 0.132403 7.58207C-0.245655 8.93854 0.215605 10.3894 1.13813 13.2911C2.06065 16.1928 2.52191 17.6436 3.60791 18.5139C3.69503 18.5837 3.78462 18.6503 3.87651 18.7134C4.26291 18.9787 4.68881 19.1546 5.19818 19.2711V16.0678C5.19818 13.6397 7.12417 11.6713 9.5 11.6713C11.8758 11.6713 13.8018 13.6397 13.8018 16.0678V19.2711C14.3112 19.1546 14.7371 18.9787 15.1235 18.7134C15.2154 18.6503 15.305 18.5837 15.3921 18.5139C16.4781 17.6436 16.9394 16.1928 17.8619 13.2911C18.7844 10.3894 19.2457 8.93854 18.8676 7.58207C18.8373 7.47326 18.803 7.36561 18.765 7.25936C18.2907 5.93485 17.0831 5.03818 14.6679 3.24484C12.2527 1.4515 11.0451 0.554817 9.66601 0.503111C9.55537 0.498963 9.44463 0.498963 9.33399 0.503111C7.95486 0.554817 6.74727 1.45149 4.33208 3.24484Z" fill="#D5D5D9"/>
<path d="M12.4433 19.4494V16.0678C12.4433 14.4065 11.1256 13.0597 9.5 13.0597C7.87443 13.0597 6.55665 14.4065 6.55665 16.0678V19.4494C7.34724 19.5 8.30379 19.5 9.5 19.5C10.6962 19.5 11.6528 19.5 12.4433 19.4494Z" fill="#D5D5D9"/>
</g>
</svg>
